<svg width="435" height="299" viewBox="0 0 435 299" fill="none" xmlns="http://www.w3.org/2000/svg">
<g clip-path="url(#clip0_14_310)">
<path d="M387.603 201.44C383.168 202.748 375.479 203.554 366.611 204.024C342.498 205.304 309.649 204.14 309.649 204.14C309.649 204.14 140.199 206.906 17.3643 146.457C17.3643 146.457 -0.36426 135.592 17.5419 123.751C20.2953 121.987 23.1986 120.469 26.2181 119.216L26.4402 119.021C28.4981 117.357 30.7006 115.88 33.0214 114.609C39.8464 110.809 51.229 106.525 64.5266 109.696L392.669 185.501C392.669 185.501 404.102 196.556 387.603 201.44Z" fill="#FFBA08"/>
<path d="M323.13 172.695L395.859 127.998L426.112 135.336L392.669 185.501C392.669 185.501 323.348 181.44 323.13 172.695Z" fill="#FFBA08"/>
<path d="M150.296 131.084L291.206 101.464L313.191 107.614L248.833 131.59L227.849 152.161L150.296 131.084Z" fill="#FFBA08"/>
<path d="M366.611 204.024C342.498 205.304 309.649 204.14 309.649 204.14C309.649 204.14 140.199 206.906 17.3644 146.457C17.3644 146.457 -0.364257 135.592 17.5419 123.751L17.5836 123.995C17.5836 123.995 43.608 144.249 172.795 168.316L366.611 204.024Z" fill="#F5F8FA"/>
<path d="M344.448 201.478L404.606 230.875L420.257 230.185L385.121 199.889C385.121 199.889 341.015 187.352 344.448 201.478Z" fill="#FFBA08"/>
<path d="M39.8278 128.189C36.8742 128.041 30.4442 122.637 26.4623 119.023C28.5202 117.358 30.7227 115.881 33.0435 114.61C36.259 117.439 42.0074 122.054 45.3718 122.113C50.227 122.236 44.2763 128.405 39.8278 128.189Z" fill="#F5F8FA"/>
<path d="M311.442 287.044L271.598 286.479L164.984 203.689L145.193 188.317L135.581 180.848C155.529 166.141 231.112 193.292 231.112 193.292C232.504 194.636 232.835 196.738 232.617 199.022C232.203 203.298 229.857 208.193 228.961 209.95C228.745 210.381 228.614 210.609 228.614 210.609L311.442 287.044Z" fill="#FFBA08"/>
<path d="M387.828 100.995L380.649 104.9L385.328 97.5817C384.209 96.5592 382.782 95.939 381.272 95.8193L381.161 95.8119C380.683 95.7894 380.208 95.722 379.742 95.6105L377.313 96.9364L378.431 95.1846C376.819 94.4946 375.465 93.3134 374.562 91.8088L370.216 94.192L373.167 89.5689C370.926 86.4753 367.759 84.4603 364.14 84.2192C359.803 83.9304 355.768 86.254 353.006 90.1146C352.186 91.2712 351.074 92.1897 349.785 92.7767C348.495 93.3636 347.073 93.5981 345.664 93.4563L345.433 93.4409C340.645 93.122 336.402 98.2959 335.955 105.001C335.509 111.706 339.028 117.397 343.816 117.716C344.869 117.783 345.922 117.592 346.884 117.159C348.567 116.476 350.378 116.166 352.192 116.252C354.006 116.337 355.78 116.816 357.392 117.654C358.752 118.378 360.249 118.807 361.786 118.913C363.323 119.02 364.865 118.801 366.312 118.271C368.006 117.666 369.809 117.433 371.601 117.587C373.392 117.741 375.13 118.278 376.696 119.163C377.587 119.707 378.595 120.029 379.637 120.102C384.425 120.421 388.668 115.247 389.114 108.542C389.325 105.958 388.883 103.363 387.828 100.995Z" fill="#F5F8FA"/>
<path opacity="0.03" d="M373.688 117.893C371.218 117.253 368.613 117.362 366.205 118.206C364.761 118.741 363.22 118.965 361.683 118.862C360.146 118.76 358.648 118.334 357.288 117.612C355.677 116.771 353.903 116.292 352.088 116.206C350.274 116.121 348.462 116.431 346.78 117.116C345.816 117.548 344.762 117.739 343.708 117.674C339.455 117.39 336.202 112.862 335.843 107.154C336.735 106.592 337.51 105.862 338.122 105.003C340.884 101.147 344.919 98.8232 349.256 99.1121C353.593 99.401 357.247 102.183 359.471 106.34C360.136 107.596 361.114 108.658 362.311 109.423C363.508 110.187 364.882 110.628 366.3 110.702L366.411 110.709C369.774 110.924 372.525 113.834 373.688 117.893Z" fill="black"/>
<path d="M104.465 66.3563L100.887 68.305L103.221 64.6565C102.664 64.1438 101.952 63.8329 101.198 63.7733L101.144 63.7698C100.905 63.7564 100.668 63.7227 100.435 63.6691L99.2251 64.3279L99.7803 63.474C98.976 63.1303 98.3005 62.5413 97.8501 61.7909L95.6838 62.9829L97.172 60.6811C96.6671 59.9288 96.0008 59.2988 95.2218 58.837C94.4428 58.3752 93.5707 58.0931 92.6689 58.0114C90.5071 57.8674 88.4945 59.0251 87.1336 60.9523C86.7241 61.5308 86.1684 61.9899 85.5234 62.2827C84.8784 62.5755 84.1673 62.6915 83.4629 62.6187L83.3477 62.6111C80.96 62.452 78.8434 65.0371 78.6206 68.3808C78.3979 71.7246 80.1533 74.5631 82.541 74.7222C83.0662 74.7554 83.5917 74.6605 84.0723 74.4455C84.9118 74.1034 85.8156 73.9483 86.721 73.991C87.6263 74.0336 88.5116 74.2729 89.3152 74.6923C89.9918 75.0491 90.7357 75.2596 91.4988 75.3105C92.2619 75.3613 93.0272 75.2513 93.7451 74.9874C94.5902 74.6855 95.4903 74.5691 96.3842 74.6464C97.2781 74.7236 98.1449 74.9925 98.9257 75.435C99.3701 75.7041 99.8717 75.8642 100.39 75.9022C102.777 76.0612 104.894 73.4806 105.116 70.1369C105.22 68.8419 104.996 67.5417 104.465 66.3563Z" fill="#F5F8FA"/>
<path opacity="0.03" d="M97.4117 74.7862C96.1791 74.4637 94.8783 74.5182 93.6769 74.9428C92.9585 75.2048 92.1936 75.3146 91.4307 75.2653C90.6592 75.2137 89.9075 74.9981 89.2258 74.6329C88.4215 74.215 87.5361 73.9769 86.6308 73.935C85.7256 73.8932 84.822 74.0486 83.9825 74.3906C83.5036 74.6056 82.9795 74.7007 82.4557 74.6675C80.3338 74.5261 78.7089 72.2664 78.5291 69.4215C78.9731 69.1388 79.3597 68.7746 79.6685 68.3482C81.0427 66.4219 83.0554 65.2642 85.2039 65.4073C87.3524 65.5504 89.1857 66.9509 90.3029 69.0164C90.6351 69.644 91.1245 70.1744 91.7231 70.5555C92.3218 70.9367 93.0091 71.1554 93.7178 71.1905L93.7753 71.1943C95.4454 71.3055 96.8302 72.7608 97.4117 74.7862Z" fill="black"/>
<path d="M252.776 30.9747L245.597 34.8796L250.276 27.5609C249.157 26.5384 247.73 25.9183 246.22 25.7985L246.109 25.7912C245.631 25.7687 245.156 25.7012 244.69 25.5897L242.261 26.9157L243.379 25.1639C241.767 24.4739 240.413 23.2926 239.51 21.7881L235.164 24.1712L238.115 19.5482C235.874 16.4546 232.707 14.4396 229.088 14.1985C224.751 13.9096 220.716 16.2333 217.954 20.0938C217.134 21.2504 216.022 22.1689 214.733 22.7559C213.443 23.3429 212.021 23.5774 210.612 23.4355L210.381 23.4202C205.593 23.1012 201.35 28.2752 200.904 34.9804C200.457 41.6857 203.976 47.3767 208.764 47.6956C209.817 47.7624 210.87 47.5711 211.832 47.1383C213.515 46.4551 215.326 46.1455 217.14 46.231C218.954 46.3164 220.728 46.7949 222.34 47.6333C223.7 48.3573 225.197 48.7864 226.734 48.8926C228.271 48.9989 229.813 48.7798 231.26 48.2498C232.954 47.6452 234.757 47.412 236.549 47.5659C238.34 47.7198 240.078 48.2573 241.644 49.1419C242.535 49.6858 243.543 50.008 244.585 50.0817C249.373 50.4007 253.616 45.2267 254.062 38.5214C254.273 35.9376 253.831 33.3424 252.776 30.9747Z" fill="#F5F8FA"/>
<path d="M77.4726 200.86L70.2934 204.765L74.9724 197.447C73.8537 196.424 72.4264 195.804 70.9161 195.684L70.8054 195.677C70.327 195.654 69.8518 195.587 69.3861 195.475L66.9573 196.801L68.0751 195.05C66.463 194.36 65.1092 193.178 64.2064 191.674L59.8606 194.057L62.8116 189.434C60.5704 186.34 57.403 184.325 53.7838 184.084C49.4469 183.795 45.4121 186.119 42.6499 189.98C41.83 191.136 40.7186 192.055 39.429 192.642C38.1394 193.229 36.7175 193.463 35.308 193.321L35.0776 193.306C30.2889 192.987 26.0465 198.161 25.5998 204.866C25.1532 211.571 28.6719 217.262 33.4606 217.581C34.5131 217.648 35.5659 217.457 36.5279 217.024C38.2111 216.341 40.0222 216.031 41.8364 216.117C43.6505 216.202 45.4245 216.681 47.0359 217.519C48.3961 218.243 49.8934 218.672 51.4304 218.778C52.9673 218.885 54.5094 218.666 55.9563 218.135C57.65 217.531 59.4536 217.298 61.2451 217.452C63.0366 217.606 64.7741 218.143 66.3399 219.028C67.2312 219.571 68.2396 219.894 69.2808 219.967C74.0695 220.286 78.312 215.112 78.7586 208.407C78.9691 205.823 78.5268 203.228 77.4726 200.86Z" fill="#F5F8FA"/>
<path opacity="0.03" d="M238.636 47.8725C236.166 47.2321 233.561 47.3408 231.153 48.1848C229.709 48.72 228.168 48.9438 226.631 48.8414C225.094 48.739 223.596 48.3129 222.236 47.5908C220.625 46.7503 218.851 46.2708 217.036 46.1853C215.222 46.0998 213.41 46.4104 211.728 47.0957C210.764 47.5269 209.71 47.718 208.656 47.6528C204.403 47.3695 201.15 42.841 200.791 37.1333C201.683 36.5714 202.458 35.8407 203.07 34.9822C205.832 31.1261 209.867 28.8024 214.204 29.0913C218.541 29.3802 222.195 32.1626 224.419 36.3197C225.084 37.5755 226.062 38.6375 227.259 39.4018C228.456 40.1662 229.83 40.6069 231.248 40.681L231.359 40.6884C234.722 40.9035 237.473 43.8129 238.636 47.8725Z" fill="black"/>
<path opacity="0.03" d="M63.332 217.758C60.8621 217.118 58.2577 217.226 55.8493 218.07C54.4049 218.606 52.8638 218.829 51.3271 218.727C49.7904 218.625 48.2926 218.199 46.9319 217.476C45.3212 216.636 43.547 216.156 41.7325 216.071C39.918 215.985 38.1066 216.296 36.4239 216.981C35.4599 217.413 34.406 217.604 33.3522 217.538C29.0995 217.255 25.8459 212.727 25.4875 207.019C26.3796 206.457 27.1538 205.726 27.7666 204.868C30.5285 201.012 34.5633 198.688 38.9002 198.977C43.2371 199.266 46.8917 202.048 49.1155 206.205C49.78 207.461 50.7584 208.523 51.9553 209.288C53.1521 210.052 54.5264 210.493 55.9442 210.567L56.055 210.574C59.4179 210.789 62.1697 213.699 63.332 217.758Z" fill="black"/>
</g>
<defs>
<clipPath id="clip0_14_310">
<rect width="417.147" height="270.744" fill="white" transform="translate(18.5079 0.167023) rotate(3.81093)"/>
</clipPath>
</defs>
</svg>
